PathFileType	4	(X/Y/Z)	Patient4_TMGait_0pt6_01_left_14.trc.trc
DataRate	CameraRate	NumFrames	NumMarkers	Units	OrigDataRate	OrigDataStartFrame	OrigNumFrames
82.352941176471	82.352941176471	4	33	mm	82.352941176471	89	       141
Frame#	Time	Sacral			L.Shoulder			Chest			R.Shoulder			Neck			R.ASIS			L.ASIS			R.Thigh.Superior			R.Thigh.Lateral			R.Thigh.Inferior			R.Patella			L.Thigh.Superior			L.Thigh.Lateral			L.Thigh.Inferior			L.Patella			L.Shank.Superior			L.Shank.Lateral			L.Shank.Inferior			R.Shank.Superior			R.Shank.Lateral			R.Shank.Inferior			R.Heel			R.Midfoot.Superior			R.Midfoot.Lateral			R.Toe			L.Heel			L.Midfoot.Lateral			L.Midfoot.Superior			L.Toe			L.Elbow			L.Wrist			R.Elbow			R.Wrist			
		X1	Y1	Z1	X2	Y2	Z2	X3	Y3	Z3	X4	Y4	Z4	X5	Y5	Z5	X6	Y6	Z6	X7	Y7	Z7	X8	Y8	Z8	X9	Y9	Z9	X10	Y10	Z10	X11	Y11	Z11	X12	Y12	Z12	X13	Y13	Z13	X14	Y14	Z14	X15	Y15	Z15	X16	Y16	Z16	X17	Y17	Z17	X18	Y18	Z18	X19	Y19	Z19	X20	Y20	Z20	X21	Y21	Z21	X22	Y22	Z22	X23	Y23	Z23	X24	Y24	Z24	X25	Y25	Z25	X26	Y26	Z26	X27	Y27	Z27	X28	Y28	Z28	X29	Y29	Z29	X30	Y30	Z30	X31	Y31	Z31	X32	Y32	Z32	X33	Y33	Z33	

89	18.078571428571	653.138415614945	998.937249078903	490.110711470966	814.256783413316	1435.767842808581	317.687664212079	921.240472105937	1362.530541878278	474.386061954539	839.118239191791	1426.240505608974	651.276947779283	799.335182166877	1491.132149469312	473.028512062183	884.426384378980	940.115616521540	602.438392099229	862.702324746625	957.108217105675	328.141099368769	941.787617526552	746.391421752734	572.200401904577	869.226348888565	630.932380082299	626.158344126999	952.199435420307	587.393690407477	545.508200540399	960.078388418213	497.632719197897	549.184115660981	918.733500692551	744.580839909576	354.555277994070	843.724793513903	624.687436894424	287.278418848337	936.856239035021	546.147387463184	343.393457970200	933.260181189220	458.029206113077	340.898483034487	862.256516585431	398.349021755573	338.073958698451	718.894646820987	361.165175331617	291.848085943301	699.522403545605	236.820488309779	353.841273406985	934.493152787739	407.530671302588	552.999434979704	866.785280761498	298.685665798096	610.190914379367	914.360709031736	208.339709209040	543.793556190913	786.761872674798	40.824064430602	505.206315043072	957.962621120809	97.653001071725	541.515677760954	870.351764823654	35.870288622017	579.961888224495	1077.642111050525	47.760141062164	567.843569411583	504.260586371191	174.824550929525	396.419078441407	561.247768209392	136.010966550082	312.298891270951	666.936735412500	143.925538977427	332.266265164252	745.578658790757	38.676841099720	295.450097582048	857.255430677979	1085.074785401651	197.525335784453	1054.191840967443	912.856004293644	216.300886844112	792.202943186597	1077.477574076025	760.018119899841	867.186640619673	827.198497995393	764.188536161112	
90	18.090714285714	652.575704674071	999.937106736256	493.072890262956	811.886925364834	1436.743443722329	319.507057436227	920.729580219168	1363.369325167468	474.901482161926	840.819524752748	1426.867063111549	652.936699451627	799.093906109509	1491.933004062125	475.247290419805	884.681532630716	940.963558886293	603.391824287348	860.977160700919	957.961718925896	329.267570924076	939.490648060828	745.672619705743	573.864021564794	865.640392329389	630.997717590845	627.495693459636	947.995307424113	586.715144939863	546.682082319141	954.720870586929	497.048872805322	550.093056712867	921.371360041189	748.552361788310	355.209012958073	849.561149001138	627.326266871519	287.216862814763	945.245967945896	550.865709945862	342.454942569706	943.525992228239	462.122199812765	339.484898807142	872.206657104504	401.797846979704	336.948868051660	727.788834280133	366.109866306414	292.457390753931	708.381076090832	241.417891403161	353.734978539922	928.751487355833	407.196539060041	553.847344975352	860.571267350771	298.594440423769	610.917965061712	907.628118613320	208.155209538717	544.250664604437	779.409696756456	40.913511327406	505.403367499588	950.705360614454	97.549646251110	541.730846720347	863.017470118010	35.824333010745	580.081036392361	1070.320162383065	47.560551236128	567.959950026963	513.082358468379	180.947400727657	398.583256833324	568.439110816327	142.452312186627	313.162453443351	674.679955857942	148.669895936261	331.803972909102	751.427792788629	41.389720177604	292.375979071935	850.799076702060	1084.942057986094	200.236009267911	1038.891984143940	902.547430362518	216.125876143555	802.621132006852	1077.102914153926	763.370134417817	887.770260920443	830.067919556733	767.061719058333	
91	18.102857142857	651.941122621232	1000.926319050080	495.888690640260	809.556378566190	1437.645302795697	321.204704072919	920.179237703073	1364.161767679132	475.330030143662	842.469706737250	1427.546952969909	654.453736949112	798.838294343325	1492.717861568296	477.316612571061	884.735417808072	941.704832907591	604.354649003514	859.167887992043	958.840816928852	330.450244802857	937.020848290148	745.008891749530	575.256176222101	861.992764669098	631.086104564254	628.704720515800	943.655239747071	586.075870642939	547.709473976033	949.241159839652	496.510948895582	550.912602330117	923.608040751291	752.648033523000	355.747015983305	854.752733750343	630.323034814429	287.004548030879	952.827012640494	555.935381083425	341.362894518822	953.103277573553	466.735249038225	337.898210871963	881.928753044039	405.564820116697	335.589006323391	736.828281266901	370.190068636335	292.808873294423	718.426157653907	244.974976540586	353.288299385978	922.934851395731	406.894371385231	554.609740882916	854.296305184456	298.532949660953	611.568427015121	900.868309738260	207.995399004038	544.659100061439	772.029967903432	41.022878057760	505.593588941597	943.459469104328	97.443071481333	541.925130587878	855.661861035655	35.790795681319	580.184638228893	1062.991675617413	47.319341845169	568.047666775567	523.805292807790	184.080860277449	400.405272161509	577.864593890476	146.530465270961	313.699253514220	684.423471097979	152.288340375571	330.967050567371	760.419362754097	44.277858409675	288.949531003046	843.916182649176	1084.768004859412	202.711320368942	1022.524279509020	892.738564110716	215.737585119748	813.142530771480	1076.996047584002	766.429645569202	908.546966674475	833.719234782411	769.592499433114	
92	18.115000000000	651.239550808364	1001.904575824301	498.556859581968	807.299527465353	1438.482795920789	322.799448268828	919.596165483305	1364.911823945348	475.706357263128	844.046631978196	1428.293481700651	655.836010683148	798.566667477167	1493.497985383664	479.223135030168	884.597136068393	942.350194854726	605.320520989673	857.270147498542	959.770978367922	331.680048714828	934.418389908718	744.425426666017	576.364235096631	858.305501084641	631.215567992262	629.786090790855	939.206861499629	585.486747047683	548.601294733109	943.672410567544	496.031029999743	551.650828287817	925.440243780825	756.822274878132	356.201387532762	859.335527963328	633.600672148481	286.673015294491	959.618689692348	561.254495350592	340.170625013356	961.972704071763	471.778376931821	336.185565060698	891.416040521667	409.556711868433	334.041600099255	746.042266673334	373.255908384798	292.857825601103	729.689943285294	247.372174956062	352.474397113190	917.072752630424	406.632893316981	555.294354492373	847.978630624916	298.514594420496	612.150162851725	894.095844727044	207.868976340945	545.027682542386	764.633774727902	41.151467977904	505.777974365603	936.229147418074	97.346208917801	542.104181618736	848.296024351602	35.772074024263	580.279251933492	1055.664668443618	47.059551810529	568.114394956124	536.425286855868	184.160185462783	401.712293168584	589.576551792335	148.084906591260	313.807278040737	696.235007440153	154.598632680249	329.740467840451	772.619507589893	47.107625659059	285.306195427582	836.608740183374	1084.592765016684	204.969142918659	1005.158032817191	883.529417184692	215.151829955997	823.728789808503	1077.180213140009	769.170505731979	929.444222940842	838.202134321636	771.724532268584	
